<?xml version="1.0" encoding="utf-8"?>
<svg version="1.1" xmlns:xlink="http://www.w3.org/1999/xlink" width="8px" height="7px" xmlns="http://www.w3.org/2000/svg">
  <g transform="matrix(1 0 0 1 -136 -899 )">
    <path d="M 4.19642857142856 6.91796875  C 4.14285714285713 6.97265625  4.07738095238096 7  4 7  C 3.92261904761904 7  3.85714285714287 6.97265625  3.80357142857144 6.91796875  L 1.01785714285714 4.17447916666667  C 0.988095238095241 4.15017361111102  0.947172619047626 4.11067708333333  0.895089285714278 4.05598958333333  C 0.843005952380952 4.00130208333333  0.760416666666674 3.90180121527778  0.647321428571433 3.75748697916667  C 0.534226190476193 3.61317274305556  0.433035714285722 3.46506076388898  0.34375 3.31315104166667  C 0.254464285714278 3.16124131944444  0.174851190476193 2.97743055555556  0.104910714285722 2.76171875  C 0.0349702380952408 2.54600694444444  0 2.33637152777778  0 2.1328125  C 0 1.46440972222222  0.188988095238096 0.941840277777778  0.566964285714278 0.565104166666667  C 0.94494047619047 0.188368055555556  1.4672619047619 0  2.13392857142857 0  C 2.31845238095237 0  2.50669642857143 0.0326605902777778  2.69866071428572 0.0979817708333333  C 2.890625 0.163302951388977  3.06919642857143 0.251410590277778  3.234375 0.3623046875  C 3.39955357142856 0.473198784722222  3.54166666666667 0.577256944444444  3.66071428571429 0.674479166666667  C 3.7797619047619 0.771701388888977  3.89285714285713 0.875  4 0.984375  C 4.10714285714287 0.875  4.2202380952381 0.771701388888977  4.33928571428571 0.674479166666667  C 4.45833333333333 0.577256944444444  4.60044642857144 0.473198784722222  4.765625 0.3623046875  C 4.93080357142856 0.251410590277778  5.109375 0.163302951388977  5.30133928571429 0.0979817708333333  C 5.49330357142856 0.0326605902777778  5.68154761904762 0  5.86607142857144 0  C 6.5327380952381 0  7.05505952380954 0.188368055555556  7.43303571428571 0.565104166666667  C 7.8110119047619 0.941840277777778  8 1.46440972222222  8 2.1328125  C 8 2.80425347222222  7.65922619047619 3.48784722222222  6.97767857142858 4.18359375  L 4.19642857142856 6.91796875  Z " fill-rule="nonzero" fill="#717171" stroke="none" transform="matrix(1 0 0 1 136 899 )" />
  </g>
</svg>