<?xml version="1.0" encoding="utf-8"?>
<svg version="1.1" xmlns:xlink="http://www.w3.org/1999/xlink" width="13px" height="8px" xmlns="http://www.w3.org/2000/svg">
  <g transform="matrix(1 0 0 1 -8 -13 )">
    <path d="M 12.869739478958 0.824742268041237  C 12.9565798263193 0.916380297823594  13 1.02176403207331  13 1.14089347079038  C 13 1.26002290950744  12.9565798263193 1.36540664375716  12.869739478958 1.45704467353952  L 6.79959919839676 7.86254295532646  C 6.7127588510354 7.95418098510881  6.61289245156984 8  6.5 8  C 6.38710754843016 8  6.2872411489646 7.95418098510881  6.20040080160324 7.86254295532646  L 0.13026052104204 1.45704467353952  C 0.0434201736806799 1.36540664375716  0 1.26002290950744  0 1.14089347079038  C 0 1.02176403207331  0.0434201736806799 0.916380297823594  0.13026052104204 0.824742268041237  L 0.781563126252514 0.137457044673539  C 0.868403473613874 0.0458190148911797  0.968269873079521 0  1.08116232464927 0  C 1.19405477621911 0  1.29392117568467 0.0458190148911797  1.38076152304612 0.137457044673539  L 6.5 5.53951890034364  L 11.6192384769539 0.137457044673539  C 11.7060788243153 0.0458190148911797  11.8059452237809 0  11.9188376753507 0  C 12.0317301269205 0  12.1315965263861 0.0458190148911797  12.2184368737475 0.137457044673539  L 12.869739478958 0.824742268041237  Z " fill-rule="nonzero" fill="#919191" stroke="none" transform="matrix(1 0 0 1 8 13 )" />
  </g>
</svg>