<?xml version="1.0" encoding="utf-8"?>
<svg version="1.1" xmlns:xlink="http://www.w3.org/1999/xlink" width="2px" height="2px" xmlns="http://www.w3.org/2000/svg">
  <g transform="matrix(1 0 0 1 -140 -482 )">
    <path d="M 1.86588541666667 0.498046875  C 1.95529513888889 0.651258680555555  2 0.818576388888889  2 1  C 2 1.18142361111111  1.95529513888889 1.34874131944444  1.86588541666667 1.501953125  C 1.77647569444444 1.65516493055556  1.65516493055556 1.77647569444444  1.501953125 1.86588541666667  C 1.34874131944444 1.95529513888889  1.18142361111111 2  1 2  C 0.818576388888889 2  0.651258680555556 1.95529513888889  0.498046875 1.86588541666667  C 0.344835069444444 1.77647569444444  0.223524305555556 1.65516493055556  0.134114583333333 1.501953125  C 0.0447048611111111 1.34874131944444  0 1.18142361111111  0 1  C 0 0.818576388888889  0.0447048611111111 0.651258680555555  0.134114583333333 0.498046875  C 0.223524305555556 0.344835069444444  0.344835069444444 0.223524305555555  0.498046875 0.134114583333333  C 0.651258680555556 0.0447048611111109  0.818576388888889 0  1 0  C 1.18142361111111 0  1.34874131944444 0.0447048611111109  1.501953125 0.134114583333333  C 1.65516493055556 0.223524305555555  1.77647569444444 0.344835069444444  1.86588541666667 0.498046875  Z " fill-rule="nonzero" fill="#515151" stroke="none" transform="matrix(1 0 0 1 140 482 )" />
  </g>
</svg>