<?xml version="1.0" encoding="utf-8"?>
<svg version="1.1" xmlns:xlink="http://www.w3.org/1999/xlink" width="8px" height="6px" xmlns="http://www.w3.org/2000/svg">
  <g transform="matrix(1 0 0 1 -14 -16 )">
    <path d="M 7.91983967935874 0.618556701030928  C 7.97327989311958 0.687285223367695  8 0.766323024054982  8 0.855670103092783  C 8 0.945017182130583  7.97327989311958 1.02405498281787  7.91983967935874 1.09278350515464  L 4.18436873747493 5.89690721649485  C 4.13092852371409 5.96563573883161  4.06947227788913 6  4 6  C 3.93052772211087 6  3.86907147628591 5.96563573883161  3.81563126252507 5.89690721649485  L 0.0801603206412551 1.09278350515464  C 0.0267201068804184 1.02405498281787  0 0.945017182130583  0 0.855670103092783  C 0 0.766323024054982  0.0267201068804184 0.687285223367695  0.0801603206412551 0.618556701030928  L 0.480961923847701 0.103092783505154  C 0.534402137608538 0.0343642611683848  0.595858383433551 0  0.665330661322628 0  C 0.734802939211761 0  0.796259185036718 0.0343642611683848  0.849699398797611 0.103092783505154  L 4 4.15463917525773  L 7.15030060120239 0.103092783505154  C 7.20374081496328 0.0343642611683848  7.26519706078824 0  7.33466933867737 0  C 7.40414161656645 0  7.46559786239146 0.0343642611683848  7.5190380761523 0.103092783505154  L 7.91983967935874 0.618556701030928  Z " fill-rule="nonzero" fill="#e6e6e6" stroke="none" transform="matrix(1 0 0 1 14 16 )" />
  </g>
</svg>