<?xml version="1.0" encoding="utf-8"?>
<svg version="1.1" xmlns:xlink="http://www.w3.org/1999/xlink" width="34px" height="26px" xmlns="http://www.w3.org/2000/svg">
  <g transform="matrix(1 0 0 1 -27 -302 )">
    <path d="M 9.18303571428571 19.4261363636364  C 9.53720238095238 19.7708333333333  9.71428571428571 20.1893939393939  9.71428571428571 20.6818181818182  L 9.71428571428571 24.2272727272727  C 9.71428571428571 24.719696969697  9.53720238095238 25.1382575757576  9.18303571428571 25.4829545454545  C 8.82886904761905 25.8276515151515  8.39880952380953 26  7.89285714285714 26  L 1.82142857142857 26  C 1.31547619047619 26  0.885416666666667 25.8276515151515  0.53125 25.4829545454545  C 0.177083333333333 25.1382575757576  0 24.719696969697  0 24.2272727272727  L 0 20.6818181818182  C 0 20.1893939393939  0.177083333333333 19.7708333333333  0.53125 19.4261363636364  C 0.885416666666667 19.0814393939394  1.31547619047619 18.9090909090909  1.82142857142857 18.9090909090909  L 7.89285714285714 18.9090909090909  C 8.39880952380953 18.9090909090909  8.82886904761905 19.0814393939394  9.18303571428571 19.4261363636364  Z M 9.18303571428571 9.97159090909091  C 9.53720238095238 10.3162878787879  9.71428571428571 10.7348484848485  9.71428571428571 11.2272727272727  L 9.71428571428571 14.7727272727273  C 9.71428571428571 15.2651515151515  9.53720238095238 15.6837121212121  9.18303571428571 16.0284090909091  C 8.82886904761905 16.3731060606061  8.39880952380953 16.5454545454545  7.89285714285714 16.5454545454545  L 1.82142857142857 16.5454545454545  C 1.31547619047619 16.5454545454545  0.885416666666667 16.3731060606061  0.53125 16.0284090909091  C 0.177083333333333 15.6837121212121  0 15.2651515151515  0 14.7727272727273  L 0 11.2272727272727  C 0 10.7348484848485  0.177083333333333 10.3162878787879  0.53125 9.97159090909091  C 0.885416666666667 9.62689393939394  1.31547619047619 9.45454545454546  1.82142857142857 9.45454545454546  L 7.89285714285714 9.45454545454546  C 8.39880952380953 9.45454545454546  8.82886904761905 9.62689393939394  9.18303571428571 9.97159090909091  Z M 33.46875 19.4261363636364  C 33.8229166666667 19.7708333333333  34 20.1893939393939  34 20.6818181818182  L 34 24.2272727272727  C 34 24.719696969697  33.8229166666667 25.1382575757576  33.46875 25.4829545454545  C 33.1145833333333 25.8276515151515  32.6845238095238 26  32.1785714285714 26  L 13.9642857142857 26  C 13.4583333333333 26  13.0282738095238 25.8276515151515  12.6741071428571 25.4829545454545  C 12.3199404761905 25.1382575757576  12.1428571428571 24.719696969697  12.1428571428571 24.2272727272727  L 12.1428571428571 20.6818181818182  C 12.1428571428571 20.1893939393939  12.3199404761905 19.7708333333333  12.6741071428571 19.4261363636364  C 13.0282738095238 19.0814393939394  13.4583333333333 18.9090909090909  13.9642857142857 19  L 32.1785714285714 19  C 32.6845238095238 18.9090909090909  33.1145833333333 19.0814393939394  33.46875 19.4261363636364  Z M 9.18303571428571 0.517045454545455  C 9.53720238095238 0.861742424242423  9.71428571428571 1.28030303030303  9.71428571428571 1.77272727272727  L 9.71428571428571 5.31818181818182  C 9.71428571428571 5.81060606060606  9.53720238095238 6.22916666666666  9.18303571428571 6.57386363636364  C 8.82886904761905 6.9185606060606  8.39880952380953 7.09090909090909  7.89285714285714 7.09090909090909  L 1.82142857142857 7.09090909090909  C 1.31547619047619 7.09090909090909  0.885416666666667 6.9185606060606  0.53125 6.57386363636364  C 0.177083333333333 6.22916666666666  0 5.81060606060606  0 5.31818181818182  L 0 1.77272727272727  C 0 1.28030303030303  0.177083333333333 0.861742424242423  0.53125 0.517045454545455  C 0.885416666666667 0.172348484848484  1.31547619047619 0  1.82142857142857 0  L 7.89285714285714 0  C 8.39880952380953 0  8.82886904761905 0.172348484848484  9.18303571428571 0.517045454545455  Z M 33.46875 9.97159090909091  C 33.8229166666667 10.3162878787879  34 10.7348484848485  34 11.2272727272727  L 34 14.7727272727273  C 34 15.2651515151515  33.8229166666667 15.6837121212121  33.46875 16.0284090909091  C 33.1145833333333 16.3731060606061  32.6845238095238 16.5454545454545  32.1785714285714 16.5454545454545  L 13.9642857142857 16.5454545454545  C 13.4583333333333 16.5454545454545  13.0282738095238 16.3731060606061  12.6741071428571 16.0284090909091  C 12.3199404761905 15.6837121212121  12.1428571428571 15.2651515151515  12.1428571428571 14.7727272727273  L 12.1428571428571 11.2272727272727  C 12.1428571428571 10.7348484848485  12.3199404761905 10.3162878787879  12.6741071428571 9.97159090909091  C 13.0282738095238 9.62689393939394  13.4583333333333 9.45454545454546  13.9642857142857 9.45454545454546  L 32.1785714285714 9.45454545454546  C 32.6845238095238 9.45454545454546  33.1145833333333 9.62689393939394  33.46875 9.97159090909091  Z M 33.46875 0.517045454545455  C 33.8229166666667 0.861742424242423  34 1.28030303030303  34 1.77272727272727  L 34 5.31818181818182  C 34 5.81060606060606  33.8229166666667 6.22916666666666  33.46875 6.57386363636364  C 33.1145833333333 6.9185606060606  32.6845238095238 7.09090909090909  32.1785714285714 7  L 13.9642857142857 7  C 13.4583333333333 7.09090909090909  13.0282738095238 6.9185606060606  12.6741071428571 6.57386363636364  C 12.3199404761905 6.22916666666666  12.1428571428571 5.81060606060606  12.1428571428571 5.31818181818182  L 12.1428571428571 1.77272727272727  C 12.1428571428571 1.28030303030303  12.3199404761905 0.861742424242423  12.6741071428571 0.517045454545455  C 13.0282738095238 0.172348484848484  13.4583333333333 0  13.9642857142857 0  L 32.1785714285714 0  C 32.6845238095238 0  33.1145833333333 0.172348484848484  33.46875 0.517045454545455  Z " fill-rule="nonzero" fill="#a8a8a8" stroke="none" transform="matrix(1 0 0 1 27 302 )" />
  </g>
</svg>