<?xml version="1.0" encoding="utf-8"?>
<svg version="1.1" xmlns:xlink="http://www.w3.org/1999/xlink" width="34px" height="27px" xmlns="http://www.w3.org/2000/svg">
  <g transform="matrix(1 0 0 1 -27 -366 )">
    <path d="M 2.125 24.75  L 34 24.75  L 34 27  L 0 27  L 0 0  L 2.125 0  L 2.125 24.75  Z M 31.7255859375 2.408203125  C 31.8251953125 2.513671875  31.875 2.6484375  31.875 2.8125  L 31.875 10.458984375  C 31.875 10.705078125  31.76708984375 10.8779296875  31.55126953125 10.9775390625  C 31.33544921875 11.0771484375  31.1389973958333 11.033203125  30.9619140625 10.845703125  L 28.953125 8.71875  L 18.4443359375 19.845703125  C 18.3336588541667 19.962890625  18.2063802083333 20.021484375  18.0625 20.021484375  C 17.9186197916667 20.021484375  17.7913411458333 19.962890625  17.6806640625 19.845703125  L 13.8125 15.75  L 6.90625 23.0625  L 3.71875 19.6875  L 13.4306640625 9.404296875  C 13.5413411458333 9.287109375  13.6686197916667 9.228515625  13.8125 9.228515625  C 13.9563802083333 9.228515625  14.0836588541667 9.287109375  14.1943359375 9.404296875  L 18.0625 13.5  L 25.765625 5.34375  L 23.7568359375 3.216796875  C 23.5797526041667 3.029296875  23.5382486979167 2.8212890625  23.63232421875 2.5927734375  C 23.7263997395833 2.3642578125  23.8896484375 2.25  24.1220703125 2.25  L 31.34375 2.25  C 31.4986979166667 2.25  31.6259765625 2.302734375  31.7255859375 2.408203125  Z " fill-rule="nonzero" fill="#9b9b9b" stroke="none" transform="matrix(1 0 0 1 27 366 )" />
  </g>
</svg>