<?xml version="1.0" encoding="utf-8"?>
<svg version="1.1" xmlns:xlink="http://www.w3.org/1999/xlink" width="26px" height="22px" xmlns="http://www.w3.org/2000/svg">
  <g transform="matrix(1 0 0 1 -29 -448 )">
    <path d="M 9.40625 18.59375  C 9.80208333333333 18.9895833333333  10 19.4583333333333  10 20  C 10 20.5416666666667  9.80208333333333 21.0104166666667  9.40625 21.40625  C 9.01041666666666 21.8020833333333  8.54166666666667 22  8 22  C 7.45833333333334 22  6.98958333333333 21.8020833333333  6.59375 21.40625  C 6.19791666666667 21.0104166666667  6 20.5416666666667  6 20  C 6 19.4583333333333  6.19791666666667 18.9895833333333  6.59375 18.59375  C 6.98958333333333 18.1979166666667  7.45833333333334 18  8 18  C 8.54166666666667 18  9.01041666666666 18.1979166666667  9.40625 18.59375  Z M 23.40625 18.59375  C 23.8020833333333 18.9895833333333  24 19.4583333333333  24 20  C 24 20.5416666666667  23.8020833333333 21.0104166666667  23.40625 21.40625  C 23.0104166666667 21.8020833333333  22.5416666666667 22  22 22  C 21.4583333333333 22  20.9895833333333 21.8020833333333  20.59375 21.40625  C 20.1979166666667 21.0104166666667  20 20.5416666666667  20 20  C 20 19.4583333333333  20.1979166666667 18.9895833333333  20.59375 18.59375  C 20.9895833333333 18.1979166666667  21.4583333333333 18  22 18  C 22.5416666666667 18  23.0104166666667 18.1979166666667  23.40625 18.59375  Z M 25.703125 2.29687500000002  C 25.9010416666667 2.49479166666664  26 2.72916666666666  26 3.00000000000002  L 26 11  C 26 11.25  25.9140625 11.4713541666667  25.7421875 11.6640625  C 25.5703125 11.8567708333333  25.359375 11.96875  25.109375 12  L 8.796875 13.90625  C 8.93229166666667 14.53125  9 14.8958333333333  9 15  C 9 15.1666666666667  8.875 15.5  8.625 16  L 23 16  C 23.2708333333333 16  23.5052083333333 16.0989583333333  23.703125 16.296875  C 23.9010416666667 16.4947916666667  24 16.7291666666667  24 17  C 24 17.2708333333333  23.9010416666667 17.5052083333333  23.703125 17.703125  C 23.5052083333333 17.9010416666667  23.2708333333333 18  23 18  L 7 18  C 6.72916666666667 18  6.49479166666667 17.9010416666667  6.296875 17.703125  C 6.09895833333333 17.5052083333333  6 17.2708333333333  6 17  C 6 16.8854166666667  6.04166666666667 16.7213541666667  6.125 16.5078125  C 6.20833333333333 16.2942708333333  6.29166666666667 16.1067708333333  6.375 15.9453125  C 6.45833333333334 15.7838541666667  6.5703125 15.5755208333333  6.7109375 15.3203125  C 6.8515625 15.0651041666667  6.93229166666667 14.9114583333333  6.953125 14.859375  L 4.1875 1.99999999999998  L 1 1.99999999999998  C 0.729166666666666 1.99999999999998  0.494791666666665 1.90104166666667  0.296875000000003 1.703125  C 0.0989583333333343 1.50520833333332  0 1.27083333333335  0 0.999999999999991  C 0 0.729166666666679  0.0989583333333343 0.494791666666661  0.296875000000003 0.296874999999986  C 0.494791666666665 0.0989583333333121  0.729166666666666 0  1 0  L 5 0  C 5.16666666666667 0  5.31510416666667 0.0338541666666515  5.4453125 0.101562500000005  C 5.57552083333334 0.169270833333358  5.67708333333334 0.250000000000023  5.75 0.34375  C 5.82291666666667 0.437499999999977  5.890625 0.565104166666656  5.953125 0.726562499999986  C 6.015625 0.888020833333317  6.05729166666667 1.02343750000002  6.078125 1.1328125  C 6.09895833333333 1.24218749999999  6.12760416666667 1.39583333333334  6.1640625 1.59375000000001  C 6.20052083333333 1.79166666666669  6.22395833333333 1.92708333333334  6.234375 2  L 25 2  C 25.2708333333333 1.99999999999998  25.5052083333333 2.09895833333334  25.703125 2.29687500000002  Z " fill-rule="nonzero" fill="#9f9f9f" stroke="none" transform="matrix(1 0 0 1 29 448 )" />
  </g>
</svg>