<?xml version="1.0" encoding="utf-8"?>
<svg version="1.1" xmlns:xlink="http://www.w3.org/1999/xlink" width="26px" height="22px" xmlns="http://www.w3.org/2000/svg">
  <g transform="matrix(1 0 0 1 -32 -485 )">
    <path d="M 5.43359375 16.1484375  C 5.52548363095238 16.2473958333333  5.57142857142857 16.3645833333333  5.57142857142857 16.5  L 5.57142857142857 17.5  C 5.57142857142857 17.6354166666667  5.52548363095238 17.7526041666667  5.43359375 17.8515625  C 5.34170386904762 17.9505208333333  5.23288690476191 18  5.10714285714286 18  L 4.17857142857143 18  C 4.05282738095238 18  3.94401041666667 17.9505208333333  3.85212053571429 17.8515625  C 3.76023065476191 17.7526041666667  3.71428571428571 17.6354166666667  3.71428571428571 17.5  L 3.71428571428571 16.5  C 3.71428571428571 16.3645833333333  3.76023065476191 16.2473958333333  3.85212053571429 16.1484375  C 3.94401041666667 16.0494791666667  4.05282738095238 16  4.17857142857143 16  L 5.10714285714286 16  C 5.23288690476191 16  5.34170386904762 16.0494791666667  5.43359375 16.1484375  Z M 5.43359375 12.1484375  C 5.52548363095238 12.2473958333333  5.57142857142857 12.3645833333333  5.57142857142857 12.5  L 5.57142857142857 13.5  C 5.57142857142857 13.6354166666667  5.52548363095238 13.7526041666666  5.43359375 13.8515625  C 5.34170386904762 13.9505208333333  5.23288690476191 14  5.10714285714286 14  L 4.17857142857143 14  C 4.05282738095238 14  3.94401041666667 13.9505208333333  3.85212053571429 13.8515625  C 3.76023065476191 13.7526041666666  3.71428571428571 13.6354166666667  3.71428571428571 13.5  L 3.71428571428571 12.5  C 3.71428571428571 12.3645833333333  3.76023065476191 12.2473958333333  3.85212053571429 12.1484375  C 3.94401041666667 12.0494791666667  4.05282738095238 12  4.17857142857143 12  L 5.10714285714286 12  C 5.23288690476191 12  5.34170386904762 12.0494791666667  5.43359375 12.1484375  Z M 5.43359375 8.14843749999998  C 5.52548363095238 8.24739583333335  5.57142857142857 8.36458333333335  5.57142857142857 8.50000000000001  L 5.57142857142857 9.50000000000002  C 5.57142857142857 9.63541666666668  5.52548363095238 9.75260416666668  5.43359375 9.8515625  C 5.34170386904762 9.95052083333333  5.23288690476191 10  5.10714285714286 10  L 4.17857142857143 10  C 4.05282738095238 10  3.94401041666667 9.95052083333333  3.85212053571429 9.8515625  C 3.76023065476191 9.75260416666668  3.71428571428571 9.63541666666668  3.71428571428571 9.50000000000002  L 3.71428571428571 8.50000000000001  C 3.71428571428571 8.36458333333335  3.76023065476191 8.24739583333335  3.85212053571429 8.14843749999998  C 3.94401041666667 8.04947916666665  4.05282738095238 7.99999999999999  4.17857142857143 7.99999999999999  L 5.10714285714286 7.99999999999999  C 5.23288690476191 7.99999999999999  5.34170386904762 8.04947916666665  5.43359375 8.14843749999998  Z M 22.1478794642857 16.1484375  C 22.2397693452381 16.2473958333333  22.2857142857143 16.3645833333333  22.2857142857143 16.5  L 22.2857142857143 17.5  C 22.2857142857143 17.6354166666667  22.2397693452381 17.7526041666667  22.1478794642857 17.8515625  C 22.0559895833333 17.9505208333333  21.9471726190476 18  21.8214285714286 18  L 7.89285714285714 18  C 7.7671130952381 18  7.65829613095238 17.9505208333333  7.56640625 17.8515625  C 7.47451636904762 17.7526041666667  7.42857142857143 17.6354166666667  7.42857142857143 17.5  L 7.42857142857143 16.5  C 7.42857142857143 16.3645833333333  7.47451636904762 16.2473958333333  7.56640625 16.1484375  C 7.65829613095238 16.0494791666667  7.7671130952381 16  7.89285714285714 16  L 21.8214285714286 16  C 21.9471726190476 16  22.0559895833333 16.0494791666667  22.1478794642857 16.1484375  Z M 22.1478794642857 12.1484375  C 22.2397693452381 12.2473958333333  22.2857142857143 12.3645833333333  22.2857142857143 12.5  L 22.2857142857143 13.5  C 22.2857142857143 13.6354166666667  22.2397693452381 13.7526041666666  22.1478794642857 13.8515625  C 22.0559895833333 13.9505208333333  21.9471726190476 14  21.8214285714286 14  L 7.89285714285714 14  C 7.7671130952381 14  7.65829613095238 13.9505208333333  7.56640625 13.8515625  C 7.47451636904762 13.7526041666666  7.42857142857143 13.6354166666667  7.42857142857143 13.5  L 7.42857142857143 12.5  C 7.42857142857143 12.3645833333333  7.47451636904762 12.2473958333333  7.56640625 12.1484375  C 7.65829613095238 12.0494791666667  7.7671130952381 12  7.89285714285714 12  L 21.8214285714286 12  C 21.9471726190476 12  22.0559895833333 12.0494791666667  22.1478794642857 12.1484375  Z M 22.1478794642857 8.14843749999998  C 22.2397693452381 8.24739583333335  22.2857142857143 8.36458333333335  22.2857142857143 8.50000000000001  L 22.2857142857143 9.50000000000002  C 22.2857142857143 9.63541666666668  22.2397693452381 9.75260416666668  22.1478794642857 9.8515625  C 22.0559895833333 9.95052083333333  21.9471726190476 10  21.8214285714286 10  L 7.89285714285714 10  C 7.7671130952381 10  7.65829613095238 9.95052083333333  7.56640625 9.8515625  C 7.47451636904762 9.75260416666668  7.42857142857143 9.63541666666668  7.42857142857143 9.50000000000002  L 7.42857142857143 8.50000000000001  C 7.42857142857143 8.36458333333335  7.47451636904762 8.24739583333335  7.56640625 8.14843749999998  C 7.65829613095238 8.04947916666665  7.7671130952381 7.99999999999999  7.89285714285714 8  L 21.8214285714286 8  C 21.9471726190476 7.99999999999999  22.0559895833333 8.04947916666665  22.1478794642857 8.14843749999998  Z M 24.0050223214286 19.8515625  C 24.096912202381 19.7526041666667  24.1428571428571 19.6354166666667  24 19.5  L 24 6.5  C 24.1428571428571 6.36458333333334  24.096912202381 6.24739583333334  24.0050223214286 6.14843750000002  C 23.9131324404762 6.04947916666664  23.8043154761905 5.99999999999998  23.6785714285714 6  L 2.32142857142857 6  C 2.19568452380952 5.99999999999998  2.08686755952381 6.04947916666664  1.99497767857143 6.14843750000002  C 1.90308779761905 6.24739583333334  1.85714285714286 6.36458333333334  2 6.5  L 2 19.5  C 1.85714285714286 19.6354166666667  1.90308779761905 19.7526041666667  1.99497767857143 19.8515625  C 2.08686755952381 19.9505208333333  2.19568452380952 20  2.32142857142857 20  L 23.6785714285714 20  C 23.8043154761905 20  23.9131324404762 19.9505208333333  24.0050223214286 19.8515625  Z M 25.3180803571429 0.734375000000018  C 25.772693452381 1.22395833333331  26 1.81249999999999  26 2.49999999999999  L 26 19.5  C 26 20.1875  25.772693452381 20.7760416666667  25.3180803571429 21.265625  C 24.8634672619048 21.7552083333333  24.3169642857143 22  23.6785714285714 22  L 2.32142857142857 22  C 1.68303571428571 22  1.13653273809524 21.7552083333333  0.681919642857143 21.265625  C 0.227306547619048 20.7760416666667  0 20.1875  0 19.5  L 0 2.49999999999999  C 0 1.81249999999999  0.227306547619048 1.22395833333331  0.681919642857143 0.734375000000018  C 1.13653273809524 0.244791666666672  1.68303571428571 0  2.32142857142857 0  L 23.6785714285714 0  C 24.3169642857143 0  24.8634672619048 0.244791666666672  25.3180803571429 0.734375000000018  Z " fill-rule="nonzero" fill="#9f9f9f" stroke="none" transform="matrix(1 0 0 1 32 485 )" />
  </g>
</svg>