<?xml version="1.0" encoding="utf-8"?>
<svg version="1.1" xmlns:xlink="http://www.w3.org/1999/xlink" width="26px" height="22px" xmlns="http://www.w3.org/2000/svg">
  <g transform="matrix(1 0 0 1 -32 -518 )">
    <path d="M 13.6383928571429 21.7421875  C 13.4642857142857 21.9140625  13.2514880952381 22  13 22  C 12.7485119047619 22  12.5357142857143 21.9140625  12.3616071428571 21.7421875  L 3.30803571428571 13.1197916666667  C 3.21130952380952 13.0434027777777  3.07831101190476 12.9192708333333  2.90904017857143 12.7473958333333  C 2.7397693452381 12.5755208333333  2.47135416666667 12.2628038194445  2.10379464285714 11.8092447916667  C 1.73623511904762 11.3556857638889  1.40736607142857 10.8901909722223  1.1171875 10.4127604166667  C 0.827008928571428 9.93532986111113  0.568266369047619 9.35763888888887  0.340959821428571 8.6796875  C 0.113653273809524 8.00173611111113  0 7.34288194444446  0 6.703125  C 0 4.60243055555554  0.614211309523809 2.96006944444446  1.84263392857143 1.77604166666667  C 3.07105654761905 0.592013888888872  4.76860119047619 0  6.93526785714286 0  C 7.53497023809524 0  8.14676339285714 0.102647569444462  8.77064732142857 0.307942708333333  C 9.39453125 0.513237847222257  9.97488839285714 0.790147569444462  10.51171875 1.138671875  C 11.0485491071429 1.48719618055554  11.5104166666667 1.81423611111113  11.8973214285714 2.11979166666667  C 12.2842261904762 2.42534722222226  12.6517857142857 2.75  13 3.09375  C 13.3482142857143 2.75  13.7157738095238 2.42534722222226  14.1026785714286 2.11979166666667  C 14.4895833333333 1.81423611111113  14.9514508928571 1.48719618055554  15.48828125 1.138671875  C 16.0251116071429 0.790147569444462  16.60546875 0.513237847222257  17.2293526785714 0.307942708333333  C 17.8532366071429 0.102647569444462  18.4650297619048 0  19.0647321428571 0  C 21.2313988095238 0  22.928943452381 0.592013888888872  24.1573660714286 1.77604166666667  C 25.3857886904762 2.96006944444446  26 4.60243055555554  26 6.703125  C 26 8.81336805555554  24.8924851190476 10.9618055555555  22.6774553571429 13.1484375  L 13.6383928571429 21.7421875  Z " fill-rule="nonzero" fill="#9f9f9f" stroke="none" transform="matrix(1 0 0 1 32 518 )" />
  </g>
</svg>