<?xml version="1.0" encoding="utf-8"?>
<svg version="1.1" xmlns:xlink="http://www.w3.org/1999/xlink" width="26px" height="22px" xmlns="http://www.w3.org/2000/svg">
  <g transform="matrix(1 0 0 1 -32 -582 )">
    <path d="M 10.5790816326531 20.11796875  C 10.5680272108844 20.1809895833333  10.5790816326531 20.2583333333333  10.6122448979592 20.35  C 10.6122448979592 20.3958333333333  10.6177721088435 20.5104166666667  10.6288265306122 20.69375  C 10.6398809523809 20.8770833333334  10.6426445578231 21.02890625  10.6371173469388 21.14921875  C 10.6315901360544 21.26953125  10.6150085034014 21.4041666666666  10.5873724489796 21.553125  C 10.5597363945578 21.7020833333333  10.5044642857143 21.8138020833333  10.421556122449 21.88828125  C 10.3386479591837 21.9627604166666  10.2253401360544 22  10.0816326530612 22  L 4.77551020408163 22  C 3.46003401360544 22  2.33524659863946 21.5158854166667  1.40114795918367 20.54765625  C 0.467049319727893 19.5794270833333  0 18.4135416666667  0 17.05  L 0 4.94999999999996  C 0 3.58645833333331  0.467049319727893 2.42057291666667  1.40114795918367 1.45234375000004  C 2.33524659863946 0.484114583333286  3.46003401360544 0  4.77551020408163 0  L 10.0816326530612 0  C 10.2253401360544 0  10.3497023809524 0.0544270833332857  10.4547193877551 0.163281250000036  C 10.5597363945578 0.272135416666667  10.6122448979592 0.401041666666667  10.6122448979592 0.550000000000036  C 10.6122448979592 0.595833333333357  10.6177721088435 0.710416666666691  10.6288265306122 0.893750000000036  C 10.6398809523809 1.07708333333332  10.6426445578231 1.22890625000001  10.6371173469388 1.34921874999999  C 10.6315901360544 1.46953124999996  10.6150085034014 1.60416666666667  10.5873724489796 1.75312500000004  C 10.5597363945578 1.90208333333329  10.5044642857143 2.01380208333336  10.421556122449 2.08828125000001  C 10.3386479591837 2.16276041666667  10.2253401360544 2.19999999999996  10.0816326530612 2.19999999999996  L 4.77551020408163 2.19999999999996  C 4.04591836734694 2.19999999999996  3.42134353741497 2.46927083333331  2.90178571428571 3.0078125  C 2.38222789115646 3.54635416666669  2.12244897959184 4.19375000000001  2.12244897959184 4.94999999999996  L 2.12244897959184 17.05  C 2.12244897959184 17.80625  2.38222789115646 18.4536458333333  2.90178571428571 18.9921875  C 3.42134353741497 19.5307291666667  4.04591836734694 19.8  4.77551020408163 19.8  L 9.55102040816326 19.8  L 9.73341836734693 19.8  L 9.94897959183674 19.8  C 9.94897959183674 19.8  10.0125425170068 19.8057291666667  10.1396683673469 19.8171875  C 10.2667942176871 19.8286458333333  10.3303571428571 19.8458333333334  10.3303571428571 19.86875  C 10.3303571428571 19.8916666666667  10.374574829932 19.9231770833333  10.4630102040816 19.96328125  C 10.5514455782313 20.0033854166667  10.5901360544218 20.0549479166667  10.5790816326531 20.11796875  Z M 25.6849489795918 10.2265625  C 25.8949829931973 10.4442708333333  26 10.7020833333333  26 11  C 26 11.2979166666667  25.8949829931973 11.5557291666667  25.6849489795918 11.7734375  L 16.6645408163265 21.1234375  C 16.4545068027211 21.3411458333333  16.2057823129252 21.45  15.9183673469388 21.45  C 15.6309523809524 21.45  15.3822278911565 21.3411458333333  15.172193877551 21.1234375  C 14.9621598639456 20.9057291666667  14.8571428571429 20.6479166666667  14.8571428571429 20.35  L 14.8571428571429 15.4  L 7.42857142857143 15.4  C 7.14115646258503 15.4  6.89243197278911 15.2911458333334  6.68239795918367 15.0734375  C 6.47236394557823 14.8557291666667  6.36734693877551 14.5979166666667  6.36734693877551 14.3  L 6.36734693877551 7.69999999999996  C 6.36734693877551 7.40208333333329  6.47236394557823 7.14427083333329  6.68239795918367 6.92656249999996  C 6.89243197278911 6.70885416666664  7.14115646258503 6.60000000000001  7.42857142857143 6.60000000000001  L 14.8571428571429 6.60000000000001  L 14.8571428571429 1.64999999999999  C 14.8571428571429 1.35208333333331  14.9621598639456 1.09427083333331  15.172193877551 0.876562499999988  C 15.3822278911565 0.658854166666667  15.6309523809524 0.550000000000036  15.9183673469388 0.550000000000036  C 16.2057823129252 0.550000000000036  16.4545068027211 0.658854166666667  16.6645408163265 0.876562499999988  L 25.6849489795918 10.2265625  Z " fill-rule="nonzero" fill="#919191" stroke="none" transform="matrix(1 0 0 1 32 582 )" />
  </g>
</svg>