<?xml version="1.0" encoding="utf-8"?>
<svg version="1.1" xmlns:xlink="http://www.w3.org/1999/xlink" width="8px" height="5px" xmlns="http://www.w3.org/2000/svg">
  <g transform="matrix(1 0 0 1 -292 -70 )">
    <path d="M 7.91983967935874 0.515463917525773  C 7.97327989311958 0.572737686139746  8 0.638602520045819  8 0.713058419243985  C 8 0.787514318442152  7.97327989311958 0.853379152348223  7.91983967935874 0.9106529209622  L 4.18436873747493 4.91408934707904  C 4.13092852371409 4.97136311569301  4.06947227788913 5  4 5  C 3.93052772211087 5  3.86907147628591 4.97136311569301  3.81563126252507 4.91408934707904  L 0.0801603206412551 0.9106529209622  C 0.0267201068804184 0.853379152348223  0 0.787514318442152  0 0.713058419243985  C 0 0.638602520045819  0.0267201068804184 0.572737686139746  0.0801603206412551 0.515463917525773  L 0.480961923847701 0.0859106529209619  C 0.534402137608538 0.0286368843069873  0.595858383433551 0  0.665330661322628 0  C 0.734802939211761 0  0.796259185036718 0.0286368843069873  0.849699398797611 0.0859106529209619  L 4 3.46219931271478  L 7.15030060120239 0.0859106529209619  C 7.20374081496328 0.0286368843069873  7.26519706078824 0  7.33466933867737 0  C 7.40414161656645 0  7.46559786239146 0.0286368843069873  7.5190380761523 0.0859106529209619  L 7.91983967935874 0.515463917525773  Z " fill-rule="nonzero" fill="#000000" stroke="none" transform="matrix(1 0 0 1 292 70 )" />
  </g>
</svg>