<?xml version="1.0" encoding="utf-8"?>
<svg version="1.1" xmlns:xlink="http://www.w3.org/1999/xlink" width="15px" height="15px" xmlns="http://www.w3.org/2000/svg">
  <g transform="matrix(1 0 0 1 -18 -65 )">
    <path d="M 9.19921875 9.19921875  C 9.98948317307691 8.40895432692308  10.3846153846154 7.4579326923077  10.3846153846154 6.34615384615385  C 10.3846153846154 5.234375  9.98948317307691 4.28335336538461  9.19921875 3.49308894230769  C 8.40895432692309 2.70282451923077  7.4579326923077 2.30769230769231  6.34615384615385 2.30769230769231  C 5.234375 2.30769230769231  4.28335336538461 2.70282451923077  3.4930889423077 3.49308894230769  C 2.70282451923076 4.28335336538461  2.3076923076923 5.234375  2.3076923076923 6.34615384615385  C 2.3076923076923 7.4579326923077  2.70282451923076 8.40895432692308  3.4930889423077 9.19921875  C 4.28335336538461 9.98948317307692  5.234375 10.3846153846154  6.34615384615385 10.3846153846154  C 7.4579326923077 10.3846153846154  8.40895432692309 9.98948317307692  9.19921875 9.19921875  Z M 14.6664663461538 13.0348557692308  C 14.8888221153846 13.2572115384615  15 13.5276442307692  15 13.8461538461538  C 15 14.1586538461538  14.8858173076923 14.4290865384615  14.6574519230769 14.6574519230769  C 14.4290865384615 14.8858173076923  14.1586538461538 15  13.8461538461538 15  C 13.5216346153846 15  13.2512019230769 14.8858173076923  13.0348557692308 14.6574519230769  L 9.94290865384615 11.5745192307692  C 8.8671875 12.3197115384615  7.66826923076924 12.6923076923077  6.34615384615385 12.6923076923077  C 5.48677884615385 12.6923076923077  4.6649639423077 12.5255408653846  3.88070913461539 12.1920072115385  C 3.09645432692309 11.8584735576923  2.42037259615385 11.4077524038462  1.8524639423077 10.83984375  C 1.28455528846154 10.2719350961538  0.833834134615391 9.59585336538462  0.500300480769239 8.8115985576923  C 0.166766826923086 8.02734375  0 7.20552884615385  0 6.34615384615385  C 0 5.48677884615384  0.166766826923086 4.66496394230769  0.500300480769239 3.88070913461539  C 0.833834134615391 3.09645432692308  1.28455528846154 2.42037259615385  1.8524639423077 1.85246394230769  C 2.42037259615385 1.28455528846154  3.09645432692309 0.833834134615386  3.88070913461539 0.500300480769234  C 4.6649639423077 0.166766826923076  5.48677884615385 0  6.34615384615385 0  C 7.20552884615385 0  8.02734375 0.166766826923076  8.8115985576923 0.500300480769234  C 9.59585336538461 0.833834134615386  10.2719350961538 1.28455528846154  10.83984375 1.85246394230769  C 11.4077524038462 2.42037259615385  11.8584735576923 3.09645432692308  12.1920072115385 3.88070913461539  C 12.5255408653846 4.66496394230769  12.6923076923077 5.48677884615384  12.6923076923077 6.34615384615385  C 12.6923076923077 7.66826923076923  12.3197115384615 8.8671875  11.5745192307692 9.94290865384615  L 14.6664663461538 13.0348557692308  Z " fill-rule="nonzero" fill="#444444" stroke="none" transform="matrix(1 0 0 1 18 65 )" />
  </g>
</svg>