<?xml version="1.0" encoding="utf-8"?>
<svg version="1.1" xmlns:xlink="http://www.w3.org/1999/xlink" width="26px" height="33px" xmlns="http://www.w3.org/2000/svg">
  <g transform="matrix(1 0 0 1 -103 -667 )">
    <path d="M 25.390625 26.540625  C 25.796875 27.034375  26 27.5875  26 28.2  C 26 28.9875  25.6214488636364 29.696875  24.8643465909091 30.328125  C 24.1072443181818 30.959375  23.0977746212121 31.465625  21.8359375 31.846875  C 20.5741003787879 32.228125  19.1891571969697 32.515625  17.6811079545455 32.709375  C 16.1730587121212 32.903125  14.6126893939394 33  13 33  C 11.3873106060606 33  9.82694128787879 32.903125  8.31889204545454 32.709375  C 6.8108428030303 32.515625  5.42589962121212 32.228125  4.1640625 31.846875  C 2.90222537878788 31.465625  1.89275568181818 30.959375  1.13565340909091 30.328125  C 0.378551136363636 29.696875  0 28.9875  0 28.2  C 0 27.5875  0.203125 27.034375  0.609375 26.540625  C 1.015625 26.046875  1.57575757575758 25.63125  2.28977272727273 25.29375  C 3.00378787878788 24.95625  3.73011363636364 24.678125  4.46875 24.459375  C 5.20738636363636 24.240625  6.01373106060606 24.05625  6.88778409090909 23.90625  C 7.20785984848485 23.84375  7.5033143939394 23.909375  7.77414772727273 24.103125  C 8.04498106060606 24.296875  8.20501893939394 24.55625  8.25426136363636 24.88125  C 8.31581439393939 25.20625  8.25118371212121 25.50625  8.06036931818182 25.78125  C 7.86955492424242 26.05625  7.61410984848485 26.21875  7.29403409090909 26.26875  C 6.58001893939394 26.39375  5.92755681818182 26.540625  5.33664772727273 26.709375  C 4.74573863636364 26.878125  4.27485795454546 27.0375  3.92400568181818 27.1875  C 3.57315340909091 27.3375  3.27462121212121 27.484375  3.02840909090909 27.628125  C 2.78219696969697 27.771875  2.61292613636364 27.89375  2.52059659090909 27.99375  C 2.42826704545455 28.09375  2.37594696969697 28.16875  2.36363636363636 28.21875  C 2.40056818181818 28.35625  2.56676136363636 28.521875  2.86221590909091 28.715625  C 3.15767045454545 28.909375  3.60700757575758 29.115625  4.21022727272727 29.334375  C 4.81344696969697 29.553125  5.51515151515152 29.75625  6.31534090909091 29.94375  C 7.1155303030303 30.13125  8.10345643939394 30.2875  9.27911931818182 30.4125  C 10.4547821969697 30.5375  11.6950757575758 30.6  13 30.6  C 14.3049242424242 30.6  15.5452178030303 30.5375  16.7208806818182 30.4125  C 17.8965435606061 30.2875  18.8844696969697 30.13125  19.6846590909091 29.94375  C 20.4848484848485 29.75625  21.186553030303 29.55  21.7897727272727 29.325  C 22.3929924242424 29.1  22.8423295454545 28.890625  23.1377840909091 28.696875  C 23.4332386363636 28.503125  23.5994318181818 28.33125  23.6363636363636 28.18125  C 23.624053030303 28.13125  23.5717329545455 28.0625  23.4794034090909 27.975  C 23.3870738636364 27.8875  23.217803030303 27.76875  22.9715909090909 27.61875  C 22.7253787878788 27.46875  22.4268465909091 27.321875  22.0759943181818 27.178125  C 21.7251420454545 27.034375  21.2542613636364 26.878125  20.6633522727273 26.709375  C 20.0724431818182 26.540625  19.4199810606061 26.39375  18.7059659090909 26.26875  C 18.3858901515152 26.21875  18.1304450757576 26.05625  17.9396306818182 25.78125  C 17.7488162878788 25.50625  17.6841856060606 25.20625  17.7457386363636 24.88125  C 17.7949810606061 24.55625  17.9550189393939 24.296875  18.2258522727273 24.103125  C 18.4966856060606 23.909375  18.7921401515152 23.84375  19.1122159090909 23.90625  C 19.9862689393939 24.05625  20.7926136363636 24.240625  21.53125 24.459375  C 22.2698863636364 24.678125  22.9962121212121 24.95625  23.7102272727273 25.29375  C 24.4242424242424 25.63125  24.984375 26.046875  25.390625 26.540625  Z M 18.2166193181818 9.703125  C 18.6782670454545 10.171875  18.9090909090909 10.7375  18.9090909090909 11.4  L 18.9090909090909 18.6  C 18.9090909090909 18.925  18.7921401515152 19.20625  18.5582386363636 19.44375  C 18.3243371212121 19.68125  18.0473484848485 19.8  17.7272727272727 19.8  L 16.5454545454545 19.8  L 16.5454545454545 27  C 16.5454545454545 27.325  16.4285037878788 27.60625  16.1946022727273 27.84375  C 15.9607007575758 28.08125  15.6837121212121 28.2  15.3636363636364 28.2  L 10.6363636363636 28.2  C 10.3162878787879 28.2  10.0392992424242 28.08125  9.80539772727273 27.84375  C 9.57149621212121 27.60625  9.45454545454546 27.325  9.45454545454546 27  L 9.45454545454546 19.8  L 8.27272727272727 19.8  C 7.95265151515152 19.8  7.67566287878788 19.68125  7.44176136363636 19.44375  C 7.20785984848485 19.20625  7.09090909090909 18.925  7.09090909090909 18.6  L 7.09090909090909 11.4  C 7.09090909090909 10.7375  7.32173295454546 10.171875  7.78338068181818 9.703125  C 8.24502840909091 9.234375  8.80208333333334 9  9.45454545454546 9  L 16.5454545454545 9  C 17.1979166666667 9  17.7549715909091 9.234375  18.2166193181818 9.703125  Z M 15.9268465909091 1.228125  C 16.7331912878788 2.046875  17.1363636363636 3.0375  17.1363636363636 4.2  C 17.1363636363636 5.3625  16.7331912878788 6.353125  15.9268465909091 7.171875  C 15.1205018939394 7.990625  14.1448863636364 8.4  13 8.4  C 11.8551136363636 8.4  10.8794981060606 7.990625  10.0731534090909 7.171875  C 9.26680871212121 6.353125  8.86363636363637 5.3625  8.86363636363636 4.2  C 8.86363636363637 3.0375  9.26680871212121 2.046875  10.0731534090909 1.228125  C 10.8794981060606 0.409374999999998  11.8551136363636 0  13 0  C 14.1448863636364 0  15.1205018939394 0.409374999999998  15.9268465909091 1.228125  Z " fill-rule="nonzero" fill="#6a6a6a" stroke="none" transform="matrix(1 0 0 1 103 667 )" />
  </g>
</svg>