<?xml version="1.0" encoding="utf-8"?>
<svg version="1.1" xmlns:xlink="http://www.w3.org/1999/xlink" width="33px" height="33px" xmlns="http://www.w3.org/2000/svg">
  <g transform="matrix(1 0 0 1 -258 -667 )">
    <path d="M 10.0915178571429 1.30747767857143  C 12.1294642857143 0.435825892857143  14.265625 0  16.5 0  C 18.734375 0  20.8705357142857 0.435825892857143  22.9084821428571 1.30747767857143  C 24.9464285714286 2.17912946428571  26.7020089285714 3.3515625  28.1752232142857 4.82477678571428  C 29.6484375 6.29799107142857  30.8208705357143 8.05357142857143  31.6925223214286 10.0915178571429  C 32.5641741071429 12.1294642857143  33 14.265625  33 16.5  C 33 18.7220982142857  32.5672433035714 20.8521205357143  31.7017299107143 22.8900669642857  C 30.8362165178571 24.9280133928571  29.6668526785714 26.68359375  28.1936383928571 28.1568080357143  C 26.7204241071429 29.6300223214286  24.96484375 30.8055245535714  22.9268973214286 31.6833147321429  C 20.8889508928571 32.5611049107143  18.7466517857143 33  16.5 33  C 14.2533482142857 33  12.1110491071429 32.5641741071429  10.0731026785714 31.6925223214286  C 8.03515625 30.8208705357143  6.28264508928571 29.6453683035714  4.81556919642857 28.166015625  C 3.34849330357143 26.6866629464286  2.17912946428571 24.9310825892857  1.30747767857143 22.8992745535714  C 0.435825892857143 20.8674665178571  0 18.734375  0 16.5  C 0 14.265625  0.435825892857143 12.1294642857143  1.30747767857143 10.0915178571429  C 2.17912946428571 8.05357142857143  3.3515625 6.29799107142857  4.82477678571429 4.82477678571428  C 6.29799107142857 3.3515625  8.05357142857143 2.17912946428571  10.0915178571429 1.30747767857143  Z M 22.2639508928571 18.8571428571429  C 25.2103794642857 18.8571428571429  27.0887276785714 20.8643973214286  27.8989955357143 24.87890625  C 29.7282366071429 22.3621651785714  30.6428571428571 19.5691964285714  30.6428571428571 16.5  C 30.6428571428571 14.5848214285714  30.2684151785714 12.7555803571429  29.51953125 11.0122767857143  C 28.7706473214286 9.26897321428571  27.7639508928571 7.76506696428571  26.4994419642857 6.50055803571428  C 25.2349330357143 5.23604910714286  23.7310267857143 4.22935267857143  21.9877232142857 3.48046875  C 20.2444196428571 2.73158482142857  18.4151785714286 2.35714285714286  16.5 2.35714285714286  C 14.5848214285714 2.35714285714286  12.7555803571429 2.73158482142857  11.0122767857143 3.48046875  C 9.26897321428572 4.22935267857143  7.76506696428572 5.23604910714286  6.50055803571429 6.50055803571428  C 5.23604910714286 7.76506696428571  4.22935267857143 9.26897321428571  3.48046875 11.0122767857143  C 2.73158482142857 12.7555803571429  2.35714285714286 14.5848214285714  2.35714285714286 16.5  C 2.35714285714286 19.5691964285714  3.27176339285714 22.3621651785714  5.10100446428571 24.87890625  C 5.91127232142857 20.8643973214286  7.78962053571429 18.8571428571429  10.7360491071429 18.8571428571429  C 12.3443080357143 20.4285714285714  14.265625 21.2142857142857  16.5 21.2142857142857  C 18.734375 21.2142857142857  20.6556919642857 20.4285714285714  22.2639508928571 18.8571428571429  Z M 21.4997209821429 17.9640066964286  C 22.880859375 16.5828683035714  23.5714285714286 14.9162946428571  23.5714285714286 12.9642857142857  C 23.5714285714286 11.0122767857143  22.880859375 9.345703125  21.4997209821429 7.96456473214286  C 20.1185825892857 6.58342633928572  18.4520089285714 5.89285714285714  16.5 5.89285714285714  C 14.5479910714286 5.89285714285714  12.8814174107143 6.58342633928572  11.5002790178571 7.96456473214286  C 10.119140625 9.345703125  9.42857142857143 11.0122767857143  9.42857142857143 12.9642857142857  C 9.42857142857143 14.9162946428571  10.119140625 16.5828683035714  11.5002790178571 17.9640066964286  C 12.8814174107143 19.3451450892857  14.5479910714286 20.0357142857143  16.5 20.0357142857143  C 18.4520089285714 20.0357142857143  20.1185825892857 19.3451450892857  21.4997209821429 17.9640066964286  Z " fill-rule="nonzero" fill="#6a6a6a" stroke="none" transform="matrix(1 0 0 1 258 667 )" />
  </g>
</svg>