<?xml version="1.0" encoding="utf-8"?>
<svg version="1.1" xmlns:xlink="http://www.w3.org/1999/xlink" width="33px" height="31px" xmlns="http://www.w3.org/2000/svg">
  <g transform="matrix(1 0 0 1 -177 -668 )">
    <path d="M 8.8 11.0714285714286  C 8.8 12.6744791666667  9.2640625 14.1506696428571  10.1921875 15.5  C 8.3359375 15.5576636904762  6.81770833333333 16.2957589285714  5.6375 17.7142857142857  L 3.334375 17.7142857142857  C 2.39479166666667 17.7142857142857  1.60416666666667 17.4807477678571  0.9625 17.013671875  C 0.320833333333333 16.5465959821429  0 15.86328125  0 14.9637276785714  C 0 10.8926711309524  0.710416666666667 8.85714285714286  2.13125 8.85714285714286  C 2.2 8.85714285714286  2.44921875 8.97823660714286  2.87890625 9.22042410714286  C 3.30859375 9.46261160714286  3.8671875 9.70768229166667  4.5546875 9.95563616071429  C 5.2421875 10.2035900297619  5.92395833333333 10.3275669642857  6.6 10.3275669642857  C 7.36770833333333 10.3275669642857  8.1296875 10.1949404761905  8.8859375 9.9296875  C 8.82864583333333 10.3563988095238  8.8 10.7369791666667  8.8 11.0714285714286  Z M 28.53984375 24.7290736607143  C 28.5799479166667 25.3114769345238  28.6 25.9082961309524  28.6 26.51953125  C 28.6 27.9034598214286  28.1817708333333 28.9961867559524  27.3453125 29.7977120535714  C 26.5088541666667 30.5992373511905  25.3973958333333 31  24.0109375 31  L 8.9890625 31  C 7.60260416666667 31  6.49114583333334 30.5992373511905  5.6546875 29.7977120535714  C 4.81822916666667 28.9961867559524  4.4 27.9034598214286  4.4 26.51953125  C 4.4 25.9082961309524  4.42005208333333 25.3114769345238  4.46015625 24.7290736607143  C 4.50026041666667 24.1466703869048  4.58046875 23.5181361607143  4.70078125 22.8434709821429  C 4.82109375 22.1688058035714  4.97291666666667 21.5431547619048  5.15625 20.9665178571429  C 5.33958333333333 20.3898809523809  5.5859375 19.8276599702381  5.8953125 19.2798549107143  C 6.2046875 18.7320498511905  6.55989583333333 18.2649739583333  6.9609375 17.8786272321429  C 7.36197916666667 17.4922805059524  7.85182291666667 17.1837797619048  8.43046875 16.953125  C 9.00911458333333 16.7224702380952  9.64791666666667 16.6071428571429  10.346875 16.6071428571429  C 10.4614583333333 16.6071428571429  10.7078125 16.7311197916667  11.0859375 16.9790736607143  C 11.4640625 17.2270275297619  11.8822916666667 17.5038132440476  12.340625 17.8094308035714  C 12.7989583333333 18.1150483630952  13.4119791666667 18.3918340773809  14.1796875 18.6397879464286  C 14.9473958333333 18.8877418154762  15.7208333333333 19.01171875  16.5 19.01171875  C 17.2791666666667 19.01171875  18.0526041666667 18.8877418154762  18.8203125 18.6397879464286  C 19.5880208333333 18.3918340773809  20.2010416666667 18.1150483630952  20.659375 17.8094308035714  C 21.1177083333333 17.5038132440476  21.5359375 17.2270275297619  21.9140625 16.9790736607143  C 22.2921875 16.7311197916667  22.5385416666667 16.6071428571429  22.653125 16.6071428571429  C 23.3520833333333 16.6071428571429  23.9908854166667 16.7224702380952  24.56953125 16.953125  C 25.1481770833333 17.1837797619048  25.6380208333333 17.4922805059524  26.0390625 17.8786272321429  C 26.4401041666667 18.2649739583333  26.7953125 18.7320498511905  27.1046875 19.2798549107143  C 27.4140625 19.8276599702381  27.6604166666667 20.3898809523809  27.84375 20.9665178571429  C 28.0270833333333 21.5431547619048  28.17890625 22.1688058035714  28.29921875 22.8434709821429  C 28.41953125 23.5181361607143  28.4997395833333 24.1466703869048  28.53984375 24.7290736607143  Z M 9.7109375 1.29743303571429  C 10.5703125 2.16238839285714  11 3.20610119047619  11 4.42857142857143  C 11 5.65104166666667  10.5703125 6.69475446428571  9.7109375 7.55970982142857  C 8.8515625 8.42466517857143  7.81458333333333 8.85714285714286  6.6 8.85714285714286  C 5.38541666666667 8.85714285714286  4.3484375 8.42466517857143  3.4890625 7.55970982142857  C 2.6296875 6.69475446428571  2.2 5.65104166666667  2.2 4.42857142857143  C 2.2 3.20610119047619  2.6296875 2.16238839285714  3.4890625 1.29743303571429  C 4.3484375 0.43247767857143  5.38541666666667 0  6.6 0  C 7.81458333333333 0  8.8515625 0.43247767857143  9.7109375 1.29743303571429  Z M 21.16640625 6.37472098214286  C 22.45546875 7.67215401785714  23.1 9.23772321428571  23.1 11.0714285714286  C 23.1 12.9051339285714  22.45546875 14.470703125  21.16640625 15.7681361607143  C 19.87734375 17.0655691964286  18.321875 17.7142857142857  16.5 17.7142857142857  C 14.678125 17.7142857142857  13.12265625 17.0655691964286  11.83359375 15.7681361607143  C 10.54453125 14.470703125  9.9 12.9051339285714  9.9 11.0714285714286  C 9.9 9.23772321428571  10.54453125 7.67215401785714  11.83359375 6.37472098214286  C 13.12265625 5.07728794642857  14.678125 4.42857142857143  16.5 4.42857142857143  C 18.321875 4.42857142857143  19.87734375 5.07728794642857  21.16640625 6.37472098214286  Z M 30.86875 8.85714285714286  C 32.2895833333333 8.85714285714286  33 10.8926711309524  33 14.9637276785714  C 33 15.86328125  32.6791666666667 16.5465959821429  32.0375 17.013671875  C 31.3958333333333 17.4807477678571  30.6052083333333 17.7142857142857  29.665625 17.7142857142857  L 27.3625 17.7142857142857  C 26.1822916666667 16.2957589285714  24.6640625 15.5576636904762  22.8078125 15.5  C 23.7359375 14.1506696428571  24.2 12.6744791666667  24.2 11.0714285714286  C 24.2 10.7369791666667  24.1713541666667 10.3563988095238  24.1140625 9.9296875  C 24.8703125 10.1949404761905  25.6322916666667 10.3275669642857  26.4 10.3275669642857  C 27.0760416666667 10.3275669642857  27.7578125 10.2035900297619  28.4453125 9.95563616071429  C 29.1328125 9.70768229166667  29.69140625 9.46261160714286  30.12109375 9.22042410714286  C 30.55078125 8.97823660714286  30.8 8.85714285714286  30.86875 8.85714285714286  Z M 29.5109375 1.29743303571429  C 30.3703125 2.16238839285714  30.8 3.20610119047619  30.8 4.42857142857143  C 30.8 5.65104166666667  30.3703125 6.69475446428571  29.5109375 7.55970982142857  C 28.6515625 8.42466517857143  27.6145833333333 8.85714285714286  26.4 8.85714285714286  C 25.1854166666667 8.85714285714286  24.1484375 8.42466517857143  23.2890625 7.55970982142857  C 22.4296875 6.69475446428571  22 5.65104166666667  22 4.42857142857143  C 22 3.20610119047619  22.4296875 2.16238839285714  23.2890625 1.29743303571429  C 24.1484375 0.43247767857143  25.1854166666667 0  26.4 0  C 27.6145833333333 0  28.6515625 0.43247767857143  29.5109375 1.29743303571429  Z " fill-rule="nonzero" fill="#6a6a6a" stroke="none" transform="matrix(1 0 0 1 177 668 )" />
  </g>
</svg>