<?xml version="1.0" encoding="utf-8"?>
<svg version="1.1" xmlns:xlink="http://www.w3.org/1999/xlink" width="11px" height="7px" xmlns="http://www.w3.org/2000/svg">
  <g transform="matrix(1 0 0 1 -285 -379 )">
    <path d="M 10.8897795591183 0.721649484536082  C 10.9632598530394 0.801832760595644  11 0.894043528064146  11 0.99828178694158  C 11 1.10252004581901  10.9632598530394 1.19473081328751  10.8897795591183 1.27491408934708  L 5.75350701402802 6.87972508591065  C 5.68002672010687 6.95990836197021  5.59552438209756 7  5.5 7  C 5.40447561790244 7  5.31997327989313 6.95990836197021  5.24649298597198 6.87972508591065  L 0.110220440881726 1.27491408934708  C 0.0367401469605753 1.19473081328751  0 1.10252004581901  0 0.99828178694158  C 0 0.894043528064146  0.0367401469605753 0.801832760595644  0.110220440881726 0.721649484536082  L 0.661322645290589 0.120274914089347  C 0.73480293921174 0.0400916380297822  0.819305277221133 0  0.914829659318613 0  C 1.01035404141617 0  1.09485637942549 0.0400916380297822  1.16833667334672 0.120274914089347  L 5.5 4.84707903780069  L 9.83166332665328 0.120274914089347  C 9.90514362057451 0.0400916380297822  9.98964595858383 0  10.0851703406814 0  C 10.1806947227789 0  10.2651970607883 0.0400916380297822  10.3386773547094 0.120274914089347  L 10.8897795591183 0.721649484536082  Z " fill-rule="nonzero" fill="#777676" stroke="none" transform="matrix(1 0 0 1 285 379 )" />
  </g>
</svg>