<?xml version="1.0" encoding="utf-8"?>
<svg version="1.1" xmlns:xlink="http://www.w3.org/1999/xlink" width="12px" height="18px" xmlns="http://www.w3.org/2000/svg">
  <g transform="matrix(1 0 0 1 -7 -7 )">
    <path d="M 11.7938144329897 1.08216432865731  C 11.9312714776632 1.20240480961924  12 1.34068136272545  12 1.49699398797595  C 12 1.65330661322645  11.9312714776632 1.79158316633266  11.7938144329897 1.91182364729459  L 3.69072164948454 9  L 11.7938144329897 16.0881763527054  C 11.9312714776632 16.2084168336673  12 16.3466933867735  12 16.503006012024  C 12 16.6593186372745  11.9312714776632 16.7975951903808  11.7938144329897 16.9178356713427  L 10.7628865979381 17.8196392785571  C 10.6254295532646 17.939879759519  10.46735395189 18  10.2886597938144 18  C 10.1099656357388 18  9.95189003436426 17.939879759519  9.81443298969072 17.8196392785571  L 0.206185567010309 9.41482965931864  C 0.0687285223367695 9.29458917835671  0 9.1563126252505  0 9  C 0 8.84368737474949  0.0687285223367695 8.70541082164329  0.206185567010309 8.58517034068136  L 9.81443298969072 0.180360721442886  C 9.95189003436426 0.0601202404809621  10.1099656357388 0  10.2886597938144 0  C 10.46735395189 0  10.6254295532646 0.0601202404809621  10.7628865979381 0.180360721442886  L 11.7938144329897 1.08216432865731  Z " fill-rule="nonzero" fill="#808080" stroke="none" transform="matrix(1 0 0 1 7 7 )" />
  </g>
</svg>