<?xml version="1.0" encoding="utf-8"?>
<svg version="1.1" xmlns:xlink="http://www.w3.org/1999/xlink" width="87px" height="123px" xmlns="http://www.w3.org/2000/svg">
  <defs>
    <filter x="194px" y="50px" width="87px" height="123px" filterUnits="userSpaceOnUse" id="filter6">
      <feOffset dx="0" dy="0" in="SourceAlpha" result="shadowOffsetInner" />
      <feGaussianBlur stdDeviation="5" in="shadowOffsetInner" result="shadowGaussian" />
      <feComposite in2="shadowGaussian" operator="atop" in="SourceAlpha" result="shadowComposite" />
      <feColorMatrix type="matrix" values="0 0 0 0 0  0 0 0 0 0  0 0 0 0 0  0 0 0 0.313725490196078 0  " in="shadowComposite" />
    </filter>
    <g id="widget7">
      <path d="M 61.9401041666667 15.5189732142857  C 65.3133680555555 20.8452380952381  67 26.7079613095238  67 33.1071428571429  C 67 41.5755208333333  64.1404803240741 48.9422433035714  58.4214409722222 55.2073102678571  C 52.7024016203704 61.4723772321429  45.6359953703704 65.0647321428572  37 65.984375  L 37 81  L 50.25 81  C 50.7928240740741 80.9285714285714  51.2387152777778 81.1010044642857  51.5876736111111 81.4458705357143  C 51.9366319444445 81.7907366071428  52.1111111111111 82.2313988095238  52.1111111111111 82.7678571428572  L 52.1111111111111 86.4464285714286  C 52.1111111111111 86.9828869047619  51.9366319444445 87.4235491071428  51.5876736111111 87.7684151785714  C 51.2387152777778 88.11328125  50.7928240740741 88.2857142857143  50.25 88  L 37 88  L 37 101.160714285714  C 37.2222222222222 101.697172619048  37.0477430555556 102.137834821429  36.6987847222222 102.482700892857  C 36.3498263888889 102.827566964286  35.9039351851852 103  35.3611111111111 103  L 31.6388888888889 103  C 31.0960648148148 103  30.6501736111111 102.827566964286  30.3012152777778 102.482700892857  C 29.9522569444444 102.137834821429  29.7777777777778 101.697172619048  30 101.160714285714  L 30 88  L 16.75 88  C 16.2071759259259 88.2857142857143  15.7612847222222 88.11328125  15.4123263888889 87.7684151785714  C 15.0633680555556 87.4235491071428  14.8888888888889 86.9828869047619  14.8888888888889 86.4464285714286  L 14.8888888888889 82.7678571428572  C 14.8888888888889 82.2313988095238  15.0633680555556 81.7907366071428  15.4123263888889 81.4458705357143  C 15.7612847222222 81.1010044642857  16.2071759259259 80.9285714285714  16.75 81  L 30 81  L 30 65.984375  C 23.9618055555556 65.3712797619048  18.6983506944444 63.3978794642857  13.9874131944444 60.0641741071429  C 9.27647569444444 56.73046875  5.67057291666667 52.4388020833333  3.16970486111111 47.1891741071429  C 0.668836805555557 41.9395461309524  -0.348958333333333 36.3450520833333  0.116319444444443 30.4056919642857  C 0.542824074074073 25.2710193452381  2.10344328703704 20.5003720238095  4.79817708333333 16.09375  C 7.49291087962963 11.6871279761905  11.0212673611111 8.08519345238095  15.3832465277778 5.28794642857143  C 19.7452256944444 2.4906994047619  24.5046296296296 0.8046875  29.6614583333333 0.229910714285722  C 36.2528935185185 -0.498139880952408  42.4372106481482 0.536458333333314  48.2144097222222 3.33370535714286  C 53.9916087962963 6.13095238095237  58.5668402777778 10.1927083333333  61.9401041666667 15.5189732142857  Z M 15.0924479166667 14.9154575892857  C 9.99377893518519 19.9543340773809  7.44444444444445 26.0182291666667  7.44444444444445 33.1071428571429  C 7.44444444444445 40.196056547619  9.99377893518519 46.2599516369048  15.0924479166667 51.298828125  C 20.1911168981481 56.3377046130952  26.3269675925926 58.8571428571429  33.5 58.8571428571429  C 40.6730324074074 58.8571428571429  46.8088831018518 56.3377046130952  51.9075520833333 51.298828125  C 57.0062210648148 46.2599516369048  59.5555555555555 40.196056547619  59.5555555555555 33.1071428571429  C 59.5555555555555 26.0182291666667  57.0062210648148 19.9543340773809  51.9075520833333 14.9154575892857  C 46.8088831018518 9.87658110119047  40.6730324074074 7.35714285714286  33.5 7.35714285714286  C 26.3269675925926 7.35714285714286  20.1911168981481 9.87658110119047  15.0924479166667 14.9154575892857  Z " fill-rule="nonzero" fill="#000000" stroke="none" transform="matrix(1 0 0 1 204 60 )" />
    </g>
  </defs>
  <g transform="matrix(1 0 0 1 -194 -50 )">
    <use xlink:href="#widget7" filter="url(#filter6)" />
    <use xlink:href="#widget7" />
  </g>
</svg>