<?xml version="1.0" encoding="utf-8"?>
<svg version="1.1" xmlns:xlink="http://www.w3.org/1999/xlink" width="111px" height="111px" xmlns="http://www.w3.org/2000/svg">
  <defs>
    <filter x="29px" y="59px" width="111px" height="111px" filterUnits="userSpaceOnUse" id="filter8">
      <feOffset dx="0" dy="0" in="SourceAlpha" result="shadowOffsetInner" />
      <feGaussianBlur stdDeviation="5" in="shadowOffsetInner" result="shadowGaussian" />
      <feComposite in2="shadowGaussian" operator="atop" in="SourceAlpha" result="shadowComposite" />
      <feColorMatrix type="matrix" values="0 0 0 0 0  0 0 0 0 0  0 0 0 0 0  0 0 0 0.313725490196078 0  " in="shadowComposite" />
    </filter>
    <g id="widget9">
      <path d="M 62.5625 0  L 87.2083333333333 0  C 88.2352430555556 0  89.1239149305556 0.375217013888886  89.8743489583333 1.12565104166666  C 90.6247829861111 1.87608506944443  91 2.76475694444443  91 3.79166666666666  L 91 28.4375  C 91 28.9904513888889  90.822265625 29.4446614583333  90.466796875 29.8001302083333  C 90.111328125 30.1555989583333  89.6571180555556 30.3333333333333  89.1041666666667 30.3333333333333  L 85.3125 30.3333333333333  C 84.7595486111111 30.3333333333333  84.3053385416667 30.1555989583333  83.9498697916667 29.8001302083333  C 83.5944010416667 29.4446614583333  83.4166666666667 28.9904513888889  83 28.4375  L 83 12.9153645833333  L 60.78515625 35.6061197916667  C 65.76171875 41.767578125  68.25 48.8572048611111  68.25 56.875  C 68.25 61.49609375  67.3514539930556 65.9098307291667  65.5543619791667 70.1162109375  C 63.7572699652778 74.3225911458333  61.3282335069444 77.9562717013889  58.2672526041667 81.0172526041667  C 55.2062717013889 84.0782335069445  51.5725911458333 86.5072699652778  47.3662109375 88.3043619791667  C 43.1598307291667 90.1014539930555  38.74609375 91  34.125 91  C 29.50390625 91  25.0901692708333 90.1014539930555  20.8837890625 88.3043619791667  C 16.6774088541667 86.5072699652778  13.0437282986111 84.0782335069445  9.98274739583333 81.0172526041667  C 6.92176649305556 77.9562717013889  4.49273003472222 74.3225911458333  2.69563802083334 70.1162109375  C 0.898546006944443 65.9098307291667  0 61.49609375  0 56.875  C 0 52.25390625  0.898546006944443 47.8401692708333  2.69563802083334 43.6337890625  C 4.49273003472222 39.4274088541667  6.92176649305556 35.7937282986111  9.98274739583333 32.7327473958333  C 13.0437282986111 29.6717664930555  16.6774088541667 27.2427300347222  20.8837890625 25.4456380208333  C 25.0901692708333 23.6485460069444  29.50390625 22.75  34.125 22.75  C 42.1427951388889 22.75  49.232421875 25.23828125  55.3938802083333 30.21484375  L 78.025390625 8  L 62.5625 8  C 62.0095486111111 7.58333333333334  61.5553385416667 7.40559895833334  61.1998697916667 7.05013020833334  C 60.8444010416667 6.69466145833334  60.6666666666667 6.24045138888889  60.6666666666667 5.6875  L 60.6666666666667 1.89583333333334  C 60.6666666666667 1.34288194444443  60.8444010416667 0.888671875  61.1998697916667 0.533203125  C 61.5553385416667 0.177734375  62.0095486111111 0  62.5625 0  Z M 15.3740234375 75.6259765625  C 20.5678168402778 80.8197699652778  26.8181423611111 83.4166666666667  34.125 83.4166666666667  C 41.4318576388889 83.4166666666667  47.6821831597222 80.8197699652778  52.8759765625 75.6259765625  C 58.0697699652778 70.4321831597222  60.6666666666667 64.1818576388889  60.6666666666667 56.875  C 60.6666666666667 49.5681423611111  58.0697699652778 43.3178168402778  52.8759765625 38.1240234375  C 47.6821831597222 32.9302300347222  41.4318576388889 30.3333333333333  34.125 30.3333333333333  C 26.8181423611111 30.3333333333333  20.5678168402778 32.9302300347222  15.3740234375 38.1240234375  C 10.1802300347222 43.3178168402778  7.58333333333334 49.5681423611111  7.58333333333334 56.875  C 7.58333333333334 64.1818576388889  10.1802300347222 70.4321831597222  15.3740234375 75.6259765625  Z " fill-rule="nonzero" fill="#000000" stroke="none" transform="matrix(1 0 0 1 39 69 )" />
    </g>
  </defs>
  <g transform="matrix(1 0 0 1 -29 -59 )">
    <use xlink:href="#widget9" filter="url(#filter8)" />
    <use xlink:href="#widget9" />
  </g>
</svg>