<?xml version="1.0" encoding="utf-8"?>
<svg version="1.1" xmlns:xlink="http://www.w3.org/1999/xlink" width="10px" height="6px" xmlns="http://www.w3.org/2000/svg">
  <g transform="matrix(1 0 0 1 -178 -441 )">
    <path d="M 9.89979959919839 0.618556701030968  C 9.96659986639946 0.687285223367724  10 0.766323024054998  10 0.855670103092791  C 10 0.945017182130584  9.96659986639946 1.02405498281786  9.89979959919839 1.09278350515461  L 5.23046092184367 5.89690721649487  C 5.16366065464263 5.96563573883162  5.0868403473614 6  5 6  C 4.9131596526386 6  4.83633934535737 5.96563573883162  4.76953907815633 5.89690721649487  L 0.100200400801612 1.09278350515461  C 0.0334001336005372 1.02405498281786  0 0.945017182130584  0 0.855670103092791  C 0 0.766323024054998  0.0334001336005372 0.687285223367724  0.100200400801612 0.618556701030968  L 0.601202404809612 0.103092783505133  C 0.668002672010687 0.0343642611683777  0.744822979291911 0  0.831663326653313 0  C 0.918503674014687 0  0.995323981295911 0.0343642611683777  1.06212424849699 0.103092783505133  L 5 4.15463917525773  L 8.93787575150301 0.103092783505133  C 9.00467601870409 0.0343642611683777  9.08149632598531 0  9.16833667334669 0  C 9.25517702070809 0  9.33199732798931 0.0343642611683777  9.39879759519039 0.103092783505133  L 9.89979959919839 0.618556701030968  Z " fill-rule="nonzero" fill="#999999" stroke="none" transform="matrix(1 0 0 1 178 441 )" />
  </g>
</svg>