<?xml version="1.0" encoding="utf-8"?>
<svg version="1.1" xmlns:xlink="http://www.w3.org/1999/xlink" width="50px" height="46px" xmlns="http://www.w3.org/2000/svg">
  <g transform="matrix(1 0 0 1 -130 -243 )">
    <path d="M 26.2276785714286 45.4609375  C 25.8928571428571 45.8203125  25.483630952381 46  25 46  C 24.5163690476191 46  24.1071428571429 45.8203125  23.7723214285714 45.4609375  L 6.36160714285714 27.4322916666667  C 6.17559523809524 27.2725694444444  5.91982886904762 27.0130208333333  5.59430803571429 26.6536458333333  C 5.26878720238095 26.2942708333333  4.75260416666667 25.6404079861111  4.04575892857143 24.6920572916667  C 3.33891369047619 23.7437065972222  2.70647321428571 22.7703993055556  2.1484375 21.7721354166667  C 1.59040178571429 20.7738715277778  1.09281994047619 19.5659722222222  0.655691964285714 18.1484375  C 0.218563988095238 16.7309027777778  0 15.3532986111111  0 14.015625  C 0 9.62326388888889  1.1811755952381 6.18923611111111  3.54352678571429 3.71354166666667  C 5.90587797619048 1.23784722222222  9.1703869047619 0  13.3370535714286 0  C 14.4903273809524 0  15.6668526785714 0.214626736111108  16.8666294642857 0.643880208333335  C 18.06640625 1.07313368055555  19.1824776785714 1.65212673611111  20.21484375 2.380859375  C 21.2472098214286 3.10959201388889  22.1354166666667 3.79340277777777  22.8794642857143 4.43229166666667  C 23.6235119047619 5.07118055555555  24.3303571428571 5.75  25 6.46875  C 25.6696428571429 5.75  26.3764880952381 5.07118055555555  27.1205357142857 4.43229166666667  C 27.8645833333333 3.79340277777777  28.7527901785714 3.10959201388889  29.78515625 2.380859375  C 30.8175223214286 1.65212673611111  31.93359375 1.07313368055555  33.1333705357143 0.643880208333335  C 34.3331473214286 0.214626736111108  35.5096726190476 0  36.6629464285714 0  C 40.8296130952381 0  44.0941220238095 1.23784722222222  46.4564732142857 3.71354166666667  C 48.8188244047619 6.18923611111111  50 9.62326388888889  50 14.015625  C 50 18.4279513888889  47.8701636904762 22.9201388888889  43.6104910714286 27.4921875  L 26.2276785714286 45.4609375  Z " fill-rule="nonzero" fill="#ffffff" stroke="none" transform="matrix(1 0 0 1 130 243 )" />
  </g>
</svg>