<?xml version="1.0" encoding="utf-8"?>
<svg version="1.1" xmlns:xlink="http://www.w3.org/1999/xlink" width="22px" height="19px" xmlns="http://www.w3.org/2000/svg">
  <g transform="matrix(1 0 0 1 -9 -362 )">
    <path d="M 11.5401785714286 18.77734375  C 11.3928571428571 18.92578125  11.2127976190476 19  11 19  C 10.7872023809524 19  10.6071428571429 18.92578125  10.4598214285714 18.77734375  L 2.79910714285714 11.3307291666667  C 2.71726190476191 11.2647569444444  2.60472470238095 11.1575520833333  2.46149553571429 11.0091145833333  C 2.31826636904762 10.8606770833333  2.09114583333333 10.5906032986111  1.78013392857143 10.1988932291667  C 1.46912202380952 9.80718315972222  1.19084821428571 9.40516493055555  0.9453125 8.99283854166667  C 0.699776785714286 8.58051215277778  0.480840773809524 8.08159722222222  0.288504464285714 7.49609375  C 0.0961681547619048 6.91059027777778  0 6.34157986111111  0 5.7890625  C 0 3.97482638888889  0.519717261904762 2.55642361111111  1.55915178571429 1.53385416666667  C 2.59858630952381 0.511284722222222  4.03497023809524 0  5.86830357142857 0  C 6.37574404761905 0  6.89341517857143 0.0886501736111099  7.42131696428571 0.265950520833334  C 7.94921875 0.443250868055554  8.44029017857143 0.68240017361111  8.89453125 0.9833984375  C 9.34877232142857 1.28439670138889  9.73958333333334 1.56684027777778  10.0669642857143 1.83072916666667  C 10.3943452380952 2.09461805555555  10.7053571428571 2.375  11 2.671875  C 11.2946428571429 2.375  11.6056547619048 2.09461805555555  11.9330357142857 1.83072916666667  C 12.2604166666667 1.56684027777778  12.6512276785714 1.28439670138889  13.10546875 0.9833984375  C 13.5597098214286 0.68240017361111  14.05078125 0.443250868055554  14.5786830357143 0.265950520833334  C 15.1065848214286 0.0886501736111099  15.624255952381 0  16.1316964285714 0  C 17.9650297619048 0  19.4014136904762 0.511284722222222  20.4408482142857 1.53385416666667  C 21.4802827380952 2.55642361111111  22 3.97482638888889  22 5.7890625  C 22 7.61154513888889  21.0628720238095 9.46701388888889  19.1886160714286 11.35546875  L 11.5401785714286 18.77734375  Z " fill-rule="nonzero" fill="#d01f1f" stroke="none" transform="matrix(1 0 0 1 9 362 )" />
  </g>
</svg>